<svg width="18" height="18" viewBox="0 0 18 18" fill="none" xmlns="http://www.w3.org/2000/svg">
<path d="M7.13361 14.2284C7.01419 14.228 6.89612 14.2031 6.78674 14.1551C6.67736 14.1072 6.57901 14.0372 6.4978 13.9497L2.2649 9.44678C2.10666 9.27815 2.0219 9.05357 2.02925 8.82245C2.0366 8.59132 2.13546 8.37259 2.30409 8.21435C2.47272 8.05612 2.69729 7.97136 2.92842 7.97871C3.15954 7.98606 3.37828 8.08492 3.53651 8.25355L7.1249 12.0771L14.4497 4.06419C14.5241 3.97162 14.6166 3.89523 14.7215 3.83971C14.8264 3.78418 14.9416 3.75069 15.0599 3.7413C15.1783 3.73191 15.2973 3.74681 15.4097 3.78509C15.5221 3.82336 15.6254 3.88421 15.7134 3.96389C15.8014 4.04357 15.8722 4.1404 15.9214 4.24843C15.9707 4.35647 15.9973 4.47342 15.9996 4.59212C16.002 4.71081 15.9801 4.82873 15.9352 4.93865C15.8904 5.04857 15.8235 5.14815 15.7388 5.23129L7.77813 13.941C7.69769 14.0301 7.59968 14.1017 7.49026 14.1511C7.38085 14.2006 7.26239 14.2269 7.14232 14.2284H7.13361Z" fill="#FFFFFF"/>
</svg>
