<svg
            width="100%" 
            height="100%" 
            viewBox="0 0 116 116" 
            fill="none" 
            xmlns="http://www.w3.org/2000/svg"
        >
            <path d="M67.6667 38.6667V29C67.6667 26.4363 66.6482 23.9775 64.8354 22.1647C63.0225 20.3518 60.5638 19.3334 58 19.3334H24.1667C21.6029 19.3334 19.1442 20.3518 17.3313 22.1647C15.5184 23.9775 14.5 26.4363 14.5 29V87C14.5 89.5638 15.5184 92.0225 17.3313 93.8354C19.1442 95.6482 21.6029 96.6667 24.1667 96.6667H58C60.5638 96.6667 63.0225 95.6482 64.8354 93.8354C66.6482 92.0225 67.6667 89.5638 67.6667 87V77.3334" stroke="#252525" strokeWidth="7.25" strokeLinecap="round" strokeLinejoin="round"/>
            <path d="M48.3333 58H101.5M101.5 58L84.8853 43.5M101.5 58L84.8853 72.5" stroke="#252525" strokeWidth="7.25" strokeLinecap="round" strokeLinejoin="round"/>
        </svg>