<svg width="32" height="32" viewBox="0 0 32 32" fill="none" xmlns="http://www.w3.org/2000/svg">
<path d="M18.6667 10.6667V7.99999C18.6667 7.29275 18.3857 6.61447 17.8856 6.11438C17.3855 5.61428 16.7072 5.33333 16 5.33333H6.66667C5.95942 5.33333 5.28115 5.61428 4.78105 6.11438C4.28095 6.61447 4 7.29275 4 7.99999V24C4 24.7072 4.28095 25.3855 4.78105 25.8856C5.28115 26.3857 5.95942 26.6667 6.66667 26.6667H16C16.7072 26.6667 17.3855 26.3857 17.8856 25.8856C18.3857 25.3855 18.6667 24.7072 18.6667 24V21.3333" stroke="#252525" stroke-width="2" stroke-linecap="round" stroke-linejoin="round"/>
<path d="M13.3333 16H28M28 16L23.4166 12M28 16L23.4166 20" stroke="#252525" stroke-width="2" stroke-linecap="round" stroke-linejoin="round"/>
</svg>
